<?xml version="1.0" encoding="UTF-8"?>
<svg xmlns="http://www.w3.org/2000/svg" viewBox="0 0 1204 980" width="1204" height="980">
<path d="M0.25 0.25C401.42 0.25 802.58 0.25 1203.75 0.25C1203.75 326.75 1203.75 653.25 1203.75 979.75C802.58 979.75 401.42 979.75 0.25 979.75C0.25 653.25 0.25 326.75 0.25 0.25ZM835.99 167.5C832.29 162.6 815.8 156.99 809.53 153.94C788.84 143.89 768.04 134.11 747.25 124.26C716.09 109.5 684.83 94.82 653.93 79.54C645.42 75.33 636.75 71.4 628.17 67.34C624.44 65.57 619.68 62.15 615.5 61.76C610.63 61.3 604.49 65.58 600.24 67.7C587.7 73.94 574.98 79.8 562.34 85.84C522.2 105.04 481.97 124.07 441.88 143.4C430.86 148.71 419.91 154.24 408.77 159.29C403.92 161.5 396.96 163.37 393.63 167.5C424.25 181.74 454.88 195.97 485.5 210.21C487.54 203.93 484.67 191.82 487.47 186.96C488.85 184.57 492.49 182.69 494.78 181.31C501.19 177.45 507.77 174.02 514.73 171.27C535.12 163.21 555.85 160.19 577.4 157.68C587.89 156.45 603.21 155.16 613.24 158.5C610.39 160.49 606.45 160.07 602.82 160.47C596.41 161.16 590.05 162.27 583.71 163.39C564.16 166.86 545.49 173.01 527.32 180.79C521.12 183.44 515.04 186.27 509.35 189.9C507.52 191.07 504.28 192.66 503.44 194.81C502.26 197.82 503.07 202.3 503.03 205.5C502.92 214.18 503.03 222.82 503.16 231.5C503.27 239.21 501.53 252.66 503.57 259.5C510.63 259.07 520.04 252.05 528.5 251.1C531.98 250.71 535.41 251.81 538.83 251.45C544.72 250.83 550.39 248.78 556.17 247.58C565.18 245.71 574.38 244.15 583.5 242.99C603.78 240.42 624.22 241.01 644.5 243.07C665.34 245.18 685.92 250.58 705.44 258.07C711.8 260.51 718.1 263.34 724.21 266.35C728.07 268.26 731.33 270.75 735.64 270.5C735.64 251.95 735.64 233.4 735.64 214.85C755.26 206.01 774.88 197.17 794.5 188.32C795.95 192.68 795.2 197.89 795.18 202.5C795.16 211.83 795.11 221.17 795.1 230.5C795.1 234.52 796.19 242.77 794.74 246.28C794 248.09 791.36 249.18 789.98 250.47C787.21 253.06 785.35 256.44 784.6 260.17C783.8 264.18 784.62 268.46 786.45 272.07C787.76 274.63 790.27 276.48 790.2 279.5C790.11 283.37 788.15 287.85 787.3 291.63C785.21 300.85 783.65 310.18 781.83 319.45C780.77 324.84 778.63 330.73 779.5 336.13C783.49 337.8 788.19 337.29 792.5 337.32C800.9 337.38 813.73 339 821.5 336.39C823.04 330.99 820.64 324.38 819.57 318.81C818.03 310.71 816.85 302.53 815.18 294.47C814.17 289.56 811.73 283.5 811.96 278.5C812.08 276.01 814.37 274.1 815.42 271.91C817.12 268.33 817.91 264.47 817.32 260.5C816.34 253.95 812.13 249.62 806.62 246.5C806.62 225.17 806.62 203.83 806.62 182.5C816.41 177.5 826.2 172.5 835.99 167.5ZM454.27 238.5C449.8 233.87 441.52 231.58 435.68 228.77C433.56 227.75 431.17 226.08 428.7 226.36C423.39 226.97 407.62 235.75 402.17 238.62C371.63 254.68 342.14 275.7 318.47 300.99C279.86 342.23 249.11 390.13 231.54 444.06C227.48 456.55 224.57 469.33 221.54 482.05C219.5 490.61 218.81 499.59 217.57 508.26C214.56 529.41 213.98 552.14 216.33 573.46C218.81 595.91 223.25 617.86 230.17 639.39C232.99 648.18 236.62 656.82 240.25 665.28C242.01 669.38 245.14 673.71 245.5 678.11C237.37 682.9 229.25 687.7 221.12 692.5C248.25 701.03 275.37 709.55 302.5 718.08C305.06 713.45 304.34 705.87 304.91 700.5C306.3 687.51 307.94 674.52 309 661.5C309.48 655.64 311.47 649.4 309.5 643.8C301.17 648.02 292.83 652.24 284.5 656.46C278.23 650.19 272.85 634.25 269.75 625.68C258.96 595.89 253.77 570.44 253.86 538.5C254.11 445.32 300.15 350.97 371.17 290.65C388.77 275.7 407.78 262.71 427.94 251.48C433.34 248.47 438.94 245.62 444.59 243.08C447.88 241.6 451.28 240.53 454.27 238.5ZM616.82 270.5C608.98 268.44 610.8 274.4 611.47 279.12C611.85 281.83 611.54 284.75 611.51 287.47C611.37 300.94 611.6 314.41 611.5 327.87C611.46 333.74 611.88 339.72 610.92 345.5C547.6 382.5 484.27 419.5 420.94 456.5C421.07 460.33 421.2 464.16 421.33 467.99C433.25 467.99 445.16 467.99 457.08 467.99C458.26 473.3 458.81 484.97 456.53 489.73C414.7 489.73 372.87 489.73 331.04 489.73C331.04 504.29 331.04 518.84 331.04 533.4C335.38 533.4 339.72 533.4 344.07 533.4C344.07 542.43 344.07 551.47 344.07 560.5C348.4 561.17 352.74 561.83 357.07 562.5C357.87 572.08 357.26 581.88 357.3 591.5C357.37 610.5 357.35 629.5 357.32 648.5C357.31 657.34 355.63 678.29 358.5 685.62C364.23 688.47 373.12 687.95 379.5 687.87C383.63 687.82 387.94 686.73 390.31 690.5C383.07 693.83 369.13 695.14 367.33 704.5C372.35 705.6 376.13 701.94 380.73 700.32C389.82 697.11 398.33 694.64 407.94 693.51C422.19 691.83 442.87 697.87 457.51 699.82C463.69 700.64 470.3 700.93 476.5 701.2C480.84 701.39 485.23 700.85 489.52 701.8C493.2 702.62 496.07 704.62 499.5 705.91C511.51 700.44 521.83 691.3 533.17 684.62C535.84 683.04 538.57 681.07 541.56 680.17C550.25 677.53 560.53 678.6 569.5 678.79C582.61 679.06 595.8 678.31 608.82 679.51C618.71 680.42 628.67 678.97 638.5 678.72C655.46 678.27 672.56 679.21 689.5 679.35C706.19 679.48 722.79 678.68 739.5 679.06C745.54 679.2 754.57 678.37 758.96 683.57C761.96 687.12 761.06 693.47 762.84 697.5C767.52 697.48 771.94 696 776.55 695.24C781.39 694.44 786.49 693.99 791.37 693.54C800.29 692.72 809.83 694.78 818.35 697.25C829.56 700.5 839.38 706.24 849.38 712.1C853.05 714.26 856.81 717.09 860.78 718.62C866.8 720.94 876.26 720.57 882.5 719.4C884.26 715.83 883.58 711.49 883.58 707.5C883.57 699.73 884.58 691.12 883.12 683.5C879.5 682.54 875.88 681.59 872.26 680.63C872.26 641.22 872.26 601.81 872.26 562.41C876.52 561.82 880.78 561.24 885.04 560.66C885.04 551.59 885.04 542.52 885.04 533.45C889.19 533.45 893.35 533.45 897.5 533.45C899.1 527.76 898.29 521.41 898.3 515.5C898.3 507.36 899.37 498.45 897.76 490.5C891.15 488.35 874.32 489.82 866.5 489.79C845.17 489.71 823.83 489.9 802.5 489.79C792.95 489.74 781.09 491.13 771.89 489.24C771.89 482.16 771.89 475.08 771.89 468C784.13 468 796.37 468 808.6 468C808.6 464.16 808.6 460.33 808.6 456.5C745.11 419.5 681.62 382.49 618.13 345.49C618.13 337.03 618.13 328.58 618.13 320.12C626.14 316.68 634.68 315.8 643.05 318.5C647.29 319.87 650.76 323.02 654.94 324.51C663.59 327.59 676.89 327.52 684.28 321.5C685.33 315.05 682.99 308.06 682.92 301.5C682.85 294.84 685.2 288.11 684.27 281.5C677.53 280.21 670.14 285.03 662.5 284.05C653.14 282.84 645.82 276.28 636.5 274.87C630.8 274.01 625.11 275.61 619.5 276.39C618.61 274.42 617.71 272.46 616.82 270.5ZM738.16 868.5C743.8 876.43 762.92 875.33 771.5 874.2C792.52 871.41 812.11 859.95 830.41 849.9C840.74 844.23 851.47 838.15 863.32 836.59C873.51 835.24 884.23 836.66 894.5 836.37C898.27 836.27 903.51 837.14 906.96 835.44C909.26 834.31 911.16 831.19 912.81 829.28C916.98 824.44 921.16 819.65 925.07 814.58C940.36 794.77 953.79 774.4 966.22 752.7C977.57 732.91 986.21 711.51 993.5 689.95C1011.69 636.16 1017.71 583.14 1011.95 526.5C1008.36 491.16 999.66 451.9 983.57 419.96C978.47 409.83 973.81 399.34 967.77 389.71C947.82 357.92 923.91 332.31 891.83 312.64C881.15 306.09 869.77 301.05 857.74 297.65C852.87 296.27 848.01 294.04 843.04 295.5C843.28 300.38 847.18 301.05 851.08 303.46C857.53 307.45 863.44 312.37 869.32 317.15C891.98 335.56 912.28 356.62 928.37 381.13C981.06 461.46 990.67 561.34 966.6 653.21C960.76 675.5 952.97 697.59 942.74 718.28C939.4 725.05 936.83 734.05 931.5 739.43C925.57 740.1 919.44 739.5 913.47 739.49C903.48 739.47 893.49 739.66 883.5 739.59C875.24 739.52 865.85 740.97 857.82 738.57C852.54 736.99 847.59 733.42 842.93 730.59C833.54 724.87 823.66 718.63 813.04 715.5C795.43 710.3 777.56 713.73 759.83 716.43C749.69 717.98 739.78 718.75 729.5 718.77C725.01 718.77 719.17 717.78 715.57 721.07C707.48 728.47 716.74 740.19 724.25 743.28C731.35 746.21 740.04 747.87 747.65 748.58C752.62 749.05 757.54 748.81 762.35 750.28C769.6 752.49 774.88 757.29 773.72 765.44C772.07 776.92 757.71 785.38 749.13 791.61C740.57 797.83 731.21 804.15 721.1 807.53C715.98 809.24 708.87 809.12 704.52 810.92C702.55 811.73 700.93 813.46 699.24 814.72C692.45 819.82 685.7 827.16 677.63 830.2C670.09 833.03 661.22 830.19 653.5 831.62C654.54 835.03 658.6 836.14 661.67 837.81C666.44 840.4 671.27 842.55 676.53 843.96C679.87 844.85 683.31 845.05 686.5 846.34C692.6 860.43 715.81 865.99 729.5 865.42C735.48 865.18 741.73 862.54 747.5 863.47C744.39 865.15 741.27 866.82 738.16 868.5ZM609.57 402.37C628.62 399.67 646.74 411.91 652.43 430.15C653.59 433.85 654.85 437.57 654.81 441.5C654.62 461.83 637.33 479.59 617.49 481.85C596.4 484.25 575.27 464.13 574.4 443.48C573.55 423.29 590.23 405.11 609.57 402.37ZM614.5 407.27C607.69 414.86 612.73 427.35 610.5 436.51C603.98 437.91 589.12 434.65 585.98 441.5C586.29 442.52 585.83 443.09 586.71 443.93C587.85 445.01 592.04 445 593.5 445.11C598.99 445.5 605.42 444.34 610.5 446.42C611.62 452.23 611.17 458.58 611.18 464.5C611.19 466.7 610.75 470.09 613.02 471.5C614.68 472.53 615.76 471.92 617.5 471.63C619.19 463.89 615.97 452.11 619.4 445.5C624.38 444.9 629.49 445.26 634.5 445.14C636.48 445.09 639.78 445.4 641.37 443.91C642.75 442.61 642.49 441.15 642.23 439.5C636.23 435.33 625.9 437.87 618.89 436.5C617.08 430.07 618.33 422.21 618.17 415.5C618.08 411.8 618.24 408.46 614.5 407.27ZM770.17 512.86C770.17 519.07 770.17 525.29 770.17 531.5C765.95 532.16 761.72 532.82 757.5 533.48C756.83 535.98 756.17 538.48 755.5 540.98C750.6 542.64 744.67 541.91 739.5 541.96C730.39 542.05 720.19 543.24 711.26 541.5C709.67 538.53 708.09 535.57 706.5 532.6C699.44 532.04 690.22 531.41 683.5 533.46C682.5 536.25 681.5 539.05 680.5 541.84C665.83 541.84 651.17 541.84 636.5 541.84C635.17 538.74 633.83 535.64 632.5 532.54C624.5 532.54 616.5 532.54 608.5 532.54C607.5 535.31 606.5 538.08 605.5 540.85C601.04 542.73 595.34 541.93 590.5 541.94C580.99 541.96 570.66 543.05 561.28 541.5C560.02 538.51 558.76 535.53 557.5 532.54C549.83 532.54 542.17 532.54 534.5 532.54C532.99 535.53 531.48 538.51 529.97 541.5C521.06 543.47 508.8 542.04 499.5 541.92C494.91 541.86 489.67 542.65 485.5 540.71C484.5 537.91 483.5 535.11 482.5 532.31C478.89 532.31 475.28 532.31 471.68 532.31C470.48 526.76 469.9 517.71 472.11 512.5C480.98 511.13 490.52 511.92 499.5 512.01C512.5 512.14 525.5 511.99 538.5 512.06C576.5 512.25 614.5 512.02 652.5 512.09C678.5 512.15 704.5 511.94 730.5 512.06C742.52 512.11 758.71 510.41 770.17 512.86ZM523.22 549.08C523.22 589.55 523.22 630.03 523.22 670.5C518.25 672.17 498.12 672.38 492.6 671.12C492.6 630.44 492.6 589.76 492.6 549.08C499.97 547.52 515.89 547.42 523.22 549.08ZM598.33 548.84C598.33 589.59 598.33 630.33 598.33 671.08C588.17 671.08 578.01 671.08 567.84 671.08C567.84 630.5 567.84 589.91 567.84 549.33C574.6 547.13 591.08 547.67 598.33 548.84ZM672.5 548.68C675.29 557.07 673.13 577.55 673.27 587.5C673.54 607.49 673.9 627.5 673.77 647.5C673.71 655.35 674.1 663.36 673.5 671.17C663.36 671.17 653.22 671.17 643.08 671.17C643.08 630.57 643.08 589.97 643.08 549.37C649.06 547.23 665.82 547.82 672.5 548.68ZM748.32 548.85C748.32 589.48 748.32 630.1 748.32 670.72C741.94 672.06 723.92 672.34 717.88 670.56C717.88 630.13 717.88 589.69 717.88 549.26C725.07 547.16 740.69 547.79 748.32 548.85ZM839.12 572.56C839.12 600.29 839.12 628.03 839.12 655.76C830.76 656.96 821.95 656.46 813.5 656.43C808.46 656.4 802.86 656.98 798.07 655.5C796.8 637.3 797.71 618.74 797.77 600.5C797.8 591.63 796.13 581.09 798.5 572.56C812.04 572.56 825.58 572.56 839.12 572.56ZM432.76 573.5C432.76 600.83 432.76 628.17 432.76 655.5C425.36 657.18 417.11 656.43 409.5 656.42C403.57 656.41 397.26 657.01 391.54 655.5C391.54 628.17 391.54 600.83 391.54 573.5C399.06 571.46 407.72 572.7 415.5 572.68C421.27 572.67 427.24 571.87 432.76 573.5ZM527.28 681.5C525.73 683.18 524 684.23 522.06 685.57C518.58 687.97 515.19 691.08 511.23 692.67C502.82 696.03 488.91 695.55 480.01 694.5C478.49 691.08 478.96 687.23 479.26 683.5C484.82 678.63 490.53 679.65 497.5 679.77C507.02 679.93 518.23 678.66 527.28 681.5ZM742.79 698.5C738.66 695.91 730.4 697.35 725.5 697.33C711.17 697.26 696.83 697.6 682.5 697.39C653.84 696.99 625.16 697.75 596.5 697.35C585.83 697.21 575.17 697.33 564.5 697.33C559.3 697.33 553.25 696.42 548.16 697.59C543.75 698.61 539.76 702.09 535.99 704.46C527.03 710.08 517.61 715.91 509.33 722.5C508.27 731.53 509.86 736.05 503.49 743.97C500.38 747.83 494.66 750.26 492.45 754.5C498.03 755.77 504.74 754.76 510.5 754.66C519.16 754.51 527.83 754.95 536.5 754.87C563.16 754.62 589.85 755.42 616.5 754.93C627.5 754.73 638.5 755.07 649.5 754.89C653.54 754.82 658.89 755.71 662.7 754.27C669.37 751.73 680.02 742.18 686.24 737.72C689.55 735.34 694.66 732.85 697.01 729.46C700.1 724.99 697.06 718.51 703.61 712.1C710.75 705.13 720.18 704.89 729.5 704.95C734.92 704.99 741.69 704.91 742.79 698.5ZM556.5 832.34C552.21 829.9 535.45 830.97 529.5 831.04C504.72 831.31 473.32 835.41 455.77 813.74C451.08 807.96 448.45 800.89 447.76 793.5C447.49 790.71 448.43 787.41 447.67 784.73C446.89 781.98 442.5 779.8 440.42 778.07C433.69 772.5 426.71 761.25 435.41 753.91C442.09 748.27 452.4 749.48 460.46 748.63C466.91 747.96 476.25 745.54 482.09 742.61C488.1 739.58 494.53 732.8 492.21 725.41C490.1 718.67 484.48 718.87 478.5 718.78C465.65 718.58 453.4 717.9 440.76 715.6C423.6 712.48 405.17 710.29 388.56 717.06C374.42 722.82 356.79 737.78 342.5 739.28C336.91 739.87 331.12 739.47 325.5 739.48C313.5 739.48 301.5 739.32 289.5 739.54C283.41 739.65 274.99 738.21 269.43 740.5C270.42 745.72 274.05 751.11 276.71 755.74C283.63 767.77 290.79 779.47 298.45 791.04C307.68 804.99 317.93 818.07 328.47 831.03C332.45 835.92 337.1 842.57 342.33 846.15C345.58 848.39 350.61 848.1 354.38 849.21C363.46 851.87 372.41 855.04 381.31 858.27C400.68 865.29 418.68 874.87 439.5 877.1C447.75 877.99 457.56 876.8 465.32 873.79C467.98 872.76 470.19 870.04 472.72 869.26C475.63 868.35 479.3 869.22 482.39 868.69C490.16 867.35 499 864.13 506.02 860.53C509.39 858.8 512.82 856.7 515.39 853.87C516.49 852.67 517.2 850.97 518.52 849.99C520.72 848.38 524.45 848.27 527.05 847.51C534.71 845.27 542.58 842.03 549.44 837.96C551.95 836.48 555.23 835.04 556.5 832.34ZM500 759.3C490.82 758.29 481.31 758.26 473.76 764.29C460.51 774.88 460.04 800.12 474.25 810.25C482.43 816.08 492.98 815.66 502.5 815.71C518.85 815.79 535.16 815.46 551.5 815.53C578.17 815.66 604.83 815.6 631.5 815.74C640.17 815.78 648.83 815.64 657.5 815.57C661.59 815.53 666.57 816.38 670.53 815.23C675.63 813.75 688.55 802.64 693.31 798.84C701.87 791.99 710.5 785.34 719.25 778.74C725.74 773.85 733.01 769.23 738.77 763.5C736.78 761.65 732.46 760.68 729.5 760.07C709.17 774.34 688.83 788.61 668.5 802.87C660.96 796.89 662.09 777.29 665.07 769.04C669.97 768.48 673.27 765.44 677.23 762.71C685.26 757.18 694.59 751.49 701.38 744.5C700.42 742.36 699.46 740.21 698.5 738.07C692.61 739.06 679.11 750.02 673.59 754.04C670.9 756.01 667.75 759.13 664.36 759.67C658.66 760.58 652.27 759.8 646.5 759.83C633.83 759.9 621.17 759.94 608.5 759.94C589.49 759.95 570.5 759.72 551.5 759.42C534.33 759.15 517.18 759.77 500 759.3ZM489 768.99C498.02 768.97 507.04 768.95 516.06 768.92C563.96 769.01 611.86 769.09 659.76 769.17C659.5 773.07 657.81 776.74 657.41 780.67C656.54 789.26 658.68 796.26 662.88 803.5C658.26 805.28 652.5 804.41 647.5 804.36C638.84 804.26 630.2 804.41 621.54 804.49C588.54 804.81 555.51 804.36 522.5 804.41C514.83 804.43 507.17 804.55 499.5 804.67C495.41 804.73 490.66 805.3 486.81 803.64C482.78 801.91 480.49 798.3 478.03 795C478.19 792.98 478.34 790.97 478.5 788.95C493.45 782.26 511.64 788.75 527.2 785.21C530.89 785.59 534.73 784.83 538.5 784.7C547.18 784.39 555.82 784.19 564.5 783.69C569.47 783.4 576.32 783.77 580.5 781.51C563.62 781.29 546.74 781.07 529.86 780.85C512.87 780.74 495.88 780.62 478.89 780.5C477.58 774.61 484.12 770.3 489 768.99ZM736.82 840.5C734.33 841.17 731.84 841.83 729.35 842.5C731.54 840.32 733.79 840.3 736.82 840.5ZM726.5 843.5C715.77 847.51 705.51 849.28 694.11 847.5C696.74 845.43 701.02 845.94 704.5 845.84C711.81 845.64 719.33 842.51 726.5 843.5ZM894.79 848.5C887.89 845.95 873.4 847.79 865.5 847.77C861.85 847.77 856.79 846.53 853.31 847.72C848.77 849.26 844.45 854.3 840.98 857.47C834.54 863.38 827.69 868.9 820.69 874.14C798.82 890.52 775.64 905.16 750.56 916.1C697.3 939.34 638.42 949.93 580.5 943.84C560.13 941.7 540.39 939.35 520.64 933.71C504.54 929.12 487.46 925.01 472.42 917.5C473.35 913.7 481.24 909.02 484.18 905.5C479.43 901.22 463.49 902.36 456.5 901.87C440.83 900.77 424.95 899.01 409.86 894.55C403.64 892.71 389.17 885.38 384.05 885.5C389.06 892.79 400.62 901.14 407.72 906.78C418.12 915.03 427.87 924 438.07 932.46C443.91 937.3 452.46 947.12 459.5 949.04C460.5 945.75 461.5 942.46 462.5 939.17C467.7 939.84 472.82 942.8 477.76 944.71C484.04 947.13 490.32 949.64 496.74 951.67C521.22 959.43 546.27 965.62 571.83 968.52C663.28 978.93 749.28 956.58 825.85 906.37C842.35 895.55 858.22 883.61 872.7 870.18C880.03 863.38 889.38 857.02 894.79 848.5Z" fill="#fdfdfd" fill-rule="evenodd" stroke="#fdfdfd" stroke-width="0.25" stroke-linejoin="round"/>
<path d="M835.99 167.5C826.2 172.5 816.41 177.5 806.62 182.5C806.62 203.83 806.62 225.17 806.62 246.5C812.13 249.62 816.34 253.95 817.32 260.5C817.91 264.47 817.12 268.33 815.42 271.91C814.37 274.1 812.08 276.01 811.96 278.5C811.73 283.5 814.17 289.56 815.18 294.47C816.85 302.53 818.03 310.71 819.57 318.81C820.64 324.38 823.04 330.99 821.5 336.39C813.73 339 800.9 337.38 792.5 337.32C788.19 337.29 783.49 337.8 779.5 336.13C778.63 330.73 780.77 324.84 781.83 319.45C783.65 310.18 785.21 300.85 787.3 291.63C788.15 287.85 790.11 283.37 790.2 279.5C790.27 276.48 787.76 274.63 786.45 272.07C784.62 268.46 783.8 264.18 784.6 260.17C785.35 256.44 787.21 253.06 789.98 250.47C791.36 249.18 794 248.09 794.74 246.28C796.19 242.77 795.1 234.52 795.1 230.5C795.11 221.17 795.16 211.83 795.18 202.5C795.2 197.89 795.95 192.68 794.5 188.32C774.88 197.17 755.26 206.01 735.64 214.85C735.64 233.4 735.64 251.95 735.64 270.5C731.33 270.75 728.07 268.26 724.21 266.35C718.1 263.34 711.8 260.51 705.44 258.07C685.92 250.58 665.34 245.18 644.5 243.07C624.22 241.01 603.78 240.42 583.5 242.99C574.38 244.15 565.18 245.71 556.17 247.58C550.39 248.78 544.72 250.83 538.83 251.45C535.41 251.81 531.98 250.71 528.5 251.1C520.04 252.05 510.63 259.07 503.57 259.5C501.53 252.66 503.27 239.21 503.16 231.5C503.03 222.82 502.92 214.18 503.03 205.5C503.07 202.3 502.26 197.82 503.44 194.81C504.28 192.66 507.52 191.07 509.35 189.9C515.04 186.27 521.12 183.44 527.32 180.79C545.49 173.01 564.16 166.86 583.71 163.39C590.05 162.27 596.41 161.16 602.82 160.47C606.45 160.07 610.39 160.49 613.24 158.5C603.21 155.16 587.89 156.45 577.4 157.68C555.85 160.19 535.12 163.21 514.73 171.27C507.77 174.02 501.19 177.45 494.78 181.31C492.49 182.69 488.85 184.57 487.47 186.96C484.67 191.82 487.54 203.93 485.5 210.21C454.88 195.97 424.25 181.74 393.63 167.5C396.96 163.37 403.92 161.5 408.77 159.29C419.91 154.24 430.86 148.71 441.88 143.4C481.97 124.07 522.2 105.04 562.34 85.84C574.98 79.8 587.7 73.94 600.24 67.7C604.49 65.58 610.63 61.3 615.5 61.76C619.68 62.15 624.44 65.57 628.17 67.34C636.75 71.4 645.42 75.33 653.93 79.54C684.83 94.82 716.09 109.5 747.25 124.26C768.04 134.11 788.84 143.89 809.53 153.94C815.8 156.99 832.29 162.6 835.99 167.5ZM616.82 270.5C617.71 272.46 618.61 274.42 619.5 276.39C625.11 275.61 630.8 274.01 636.5 274.87C645.82 276.28 653.14 282.84 662.5 284.05C670.14 285.03 677.53 280.21 684.27 281.5C685.2 288.11 682.85 294.84 682.92 301.5C682.99 308.06 685.33 315.05 684.28 321.5C676.89 327.52 663.59 327.59 654.94 324.51C650.76 323.02 647.29 319.87 643.05 318.5C634.68 315.8 626.14 316.68 618.13 320.12C618.13 328.58 618.13 337.03 618.13 345.49C681.62 382.49 745.11 419.5 808.6 456.5C808.6 460.33 808.6 464.16 808.6 468C796.37 468 784.13 468 771.89 468C771.89 475.08 771.89 482.16 771.89 489.24C781.09 491.13 792.95 489.74 802.5 489.79C823.83 489.9 845.17 489.71 866.5 489.79C874.32 489.82 891.15 488.35 897.76 490.5C899.37 498.45 898.3 507.36 898.3 515.5C898.29 521.41 899.1 527.76 897.5 533.45C893.35 533.45 889.19 533.45 885.04 533.45C885.04 542.52 885.04 551.59 885.04 560.66C880.78 561.24 876.52 561.82 872.26 562.41C872.26 601.81 872.26 641.22 872.26 680.63C875.88 681.59 879.5 682.54 883.12 683.5C884.58 691.12 883.57 699.73 883.58 707.5C883.58 711.49 884.26 715.83 882.5 719.4C876.26 720.57 866.8 720.94 860.78 718.62C856.81 717.09 853.05 714.26 849.38 712.1C839.38 706.24 829.56 700.5 818.35 697.25C809.83 694.78 800.29 692.72 791.37 693.54C786.49 693.99 781.39 694.44 776.55 695.24C771.94 696 767.52 697.48 762.84 697.5C761.06 693.47 761.96 687.12 758.96 683.57C754.57 678.37 745.54 679.2 739.5 679.06C722.79 678.68 706.19 679.48 689.5 679.35C672.56 679.21 655.46 678.27 638.5 678.72C628.67 678.97 618.71 680.42 608.82 679.51C595.8 678.31 582.61 679.06 569.5 678.79C560.53 678.6 550.25 677.53 541.56 680.17C538.57 681.07 535.84 683.04 533.17 684.62C521.83 691.3 511.51 700.44 499.5 705.91C496.07 704.62 493.2 702.62 489.52 701.8C485.23 700.85 480.84 701.39 476.5 701.2C470.3 700.93 463.69 700.64 457.51 699.82C442.87 697.87 422.19 691.83 407.94 693.51C398.33 694.64 389.82 697.11 380.73 700.32C376.13 701.94 372.35 705.6 367.33 704.5C369.13 695.14 383.07 693.83 390.31 690.5C387.94 686.73 383.63 687.82 379.5 687.87C373.12 687.95 364.23 688.47 358.5 685.62C355.63 678.29 357.31 657.34 357.32 648.5C357.35 629.5 357.37 610.5 357.3 591.5C357.26 581.88 357.87 572.08 357.07 562.5C352.74 561.83 348.4 561.17 344.07 560.5C344.07 551.47 344.07 542.43 344.07 533.4C339.72 533.4 335.38 533.4 331.04 533.4C331.04 518.84 331.04 504.29 331.04 489.73C372.87 489.73 414.7 489.73 456.53 489.73C458.81 484.97 458.26 473.3 457.08 467.99C445.16 467.99 433.25 467.99 421.33 467.99C421.2 464.16 421.07 460.33 420.94 456.5C484.27 419.5 547.6 382.5 610.92 345.5C611.88 339.72 611.46 333.74 611.5 327.87C611.6 314.41 611.37 300.94 611.51 287.47C611.54 284.75 611.85 281.83 611.47 279.12C610.8 274.4 608.98 268.44 616.82 270.5ZM609.57 402.37C590.23 405.11 573.55 423.29 574.4 443.48C575.27 464.13 596.4 484.25 617.49 481.85C637.33 479.59 654.62 461.83 654.81 441.5C654.85 437.57 653.59 433.85 652.43 430.15C646.74 411.91 628.62 399.67 609.57 402.37ZM614.5 407.27C618.24 408.46 618.08 411.8 618.17 415.5C618.33 422.21 617.08 430.07 618.89 436.5C625.9 437.87 636.23 435.33 642.23 439.5C642.49 441.15 642.75 442.61 641.37 443.91C639.78 445.4 636.48 445.09 634.5 445.14C629.49 445.26 624.38 444.9 619.4 445.5C615.97 452.11 619.19 463.89 617.5 471.63C615.76 471.92 614.68 472.53 613.02 471.5C610.75 470.09 611.19 466.7 611.18 464.5C611.17 458.58 611.62 452.23 610.5 446.42C605.42 444.34 598.99 445.5 593.5 445.11C592.04 445 587.85 445.01 586.71 443.93C585.83 443.09 586.29 442.52 585.98 441.5C589.12 434.65 603.98 437.91 610.5 436.51C612.73 427.35 607.69 414.86 614.5 407.27ZM770.17 512.86C758.71 510.41 742.52 512.11 730.5 512.06C704.5 511.94 678.5 512.15 652.5 512.09C614.5 512.02 576.5 512.25 538.5 512.06C525.5 511.99 512.5 512.14 499.5 512.01C490.52 511.92 480.98 511.13 472.11 512.5C469.9 517.71 470.48 526.76 471.68 532.31C475.28 532.31 478.89 532.31 482.5 532.31C483.5 535.11 484.5 537.91 485.5 540.71C489.67 542.65 494.91 541.86 499.5 541.92C508.8 542.04 521.06 543.47 529.97 541.5C531.48 538.51 532.99 535.53 534.5 532.54C542.17 532.54 549.83 532.54 557.5 532.54C558.76 535.53 560.02 538.51 561.28 541.5C570.66 543.05 580.99 541.96 590.5 541.94C595.34 541.93 601.04 542.73 605.5 540.85C606.5 538.08 607.5 535.31 608.5 532.54C616.5 532.54 624.5 532.54 632.5 532.54C633.83 535.64 635.17 538.74 636.5 541.84C651.17 541.84 665.83 541.84 680.5 541.84C681.5 539.05 682.5 536.25 683.5 533.46C690.22 531.41 699.44 532.04 706.5 532.6C708.09 535.57 709.67 538.53 711.26 541.5C720.19 543.24 730.39 542.05 739.5 541.96C744.67 541.91 750.6 542.64 755.5 540.98C756.17 538.48 756.83 535.98 757.5 533.48C761.72 532.82 765.95 532.16 770.17 531.5C770.17 525.29 770.17 519.07 770.17 512.86ZM523.22 549.08C515.89 547.42 499.97 547.52 492.6 549.08C492.6 589.76 492.6 630.44 492.6 671.12C498.12 672.38 518.25 672.17 523.22 670.5C523.22 630.03 523.22 589.55 523.22 549.08ZM598.33 548.84C591.08 547.67 574.6 547.13 567.84 549.33C567.84 589.91 567.84 630.5 567.84 671.08C578.01 671.08 588.17 671.08 598.33 671.08C598.33 630.33 598.33 589.59 598.33 548.84ZM672.5 548.68C665.82 547.82 649.06 547.23 643.08 549.37C643.08 589.97 643.08 630.57 643.08 671.17C653.22 671.17 663.36 671.17 673.5 671.17C674.1 663.36 673.71 655.35 673.77 647.5C673.9 627.5 673.54 607.49 673.27 587.5C673.13 577.55 675.29 557.07 672.5 548.68ZM748.32 548.85C740.69 547.79 725.07 547.16 717.88 549.26C717.88 589.69 717.88 630.13 717.88 670.56C723.92 672.34 741.94 672.06 748.32 670.72C748.32 630.1 748.32 589.48 748.32 548.85ZM839.12 572.56C825.58 572.56 812.04 572.56 798.5 572.56C796.13 581.09 797.8 591.63 797.77 600.5C797.71 618.74 796.8 637.3 798.07 655.5C802.86 656.98 808.46 656.4 813.5 656.43C821.95 656.46 830.76 656.96 839.12 655.76C839.12 628.03 839.12 600.29 839.12 572.56ZM432.76 573.5C427.24 571.87 421.27 572.67 415.5 572.68C407.72 572.7 399.06 571.46 391.54 573.5C391.54 600.83 391.54 628.17 391.54 655.5C397.26 657.01 403.57 656.41 409.5 656.42C417.11 656.43 425.36 657.18 432.76 655.5C432.76 628.17 432.76 600.83 432.76 573.5ZM527.28 681.5C518.23 678.66 507.02 679.93 497.5 679.77C490.53 679.65 484.82 678.63 479.26 683.5C478.96 687.23 478.49 691.08 480.01 694.5C488.91 695.55 502.82 696.03 511.23 692.67C515.19 691.08 518.58 687.97 522.06 685.57C524 684.23 525.73 683.18 527.28 681.5ZM665.07 769.04C663.3 769.08 661.53 769.13 659.76 769.17C611.86 769.09 563.96 769.01 516.06 768.92C511.97 767.8 492.51 767.33 489 768.99C484.12 770.3 477.58 774.61 478.89 780.5C495.88 780.62 512.87 780.74 529.86 780.85C531.2 781.4 532.54 781.95 533.87 782.5C531.75 783.16 529.62 783.82 527.5 784.49C527.4 784.73 527.3 784.97 527.2 785.21C511.64 788.75 493.45 782.26 478.5 788.95C478.34 790.97 478.19 792.98 478.03 795C474.02 792.48 473.55 789.1 473.65 784.5C473.91 772.89 483.16 766.26 493.93 764.5C492.56 763.5 491.18 762.5 489.8 761.5C492.64 761.07 498.82 761.52 500 759.3C517.18 759.77 534.33 759.15 551.5 759.42C570.5 759.72 589.49 759.95 608.5 759.94C621.17 759.94 633.83 759.9 646.5 759.83C652.27 759.8 658.66 760.58 664.36 759.67C667.75 759.13 670.9 756.01 673.59 754.04C679.11 750.02 692.61 739.06 698.5 738.07C699.46 740.21 700.42 742.36 701.38 744.5C694.59 751.49 685.26 757.18 677.23 762.71C673.27 765.44 669.97 768.48 665.07 769.04Z" fill="#033b78" fill-rule="evenodd" stroke="#033b78" stroke-width="0.25" stroke-linejoin="round"/>
<path d="M738.16 868.5C741.27 866.82 744.39 865.15 747.5 863.47C741.73 862.54 735.48 865.18 729.5 865.42C715.81 865.99 692.6 860.43 686.5 846.34C683.31 845.05 679.87 844.85 676.53 843.96C671.27 842.55 666.44 840.4 661.67 837.81C658.6 836.14 654.54 835.03 653.5 831.62C661.22 830.19 670.09 833.03 677.63 830.2C685.7 827.16 692.45 819.82 699.24 814.72C700.93 813.46 702.55 811.73 704.52 810.92C708.87 809.12 715.98 809.24 721.1 807.53C731.21 804.15 740.57 797.83 749.13 791.61C757.71 785.38 772.07 776.92 773.72 765.44C774.88 757.29 769.6 752.49 762.35 750.28C757.54 748.81 752.62 749.05 747.65 748.58C740.04 747.87 731.35 746.21 724.25 743.28C716.74 740.19 707.48 728.47 715.57 721.07C719.17 717.78 725.01 718.77 729.5 718.77C739.78 718.75 749.69 717.98 759.83 716.43C777.56 713.73 795.43 710.3 813.04 715.5C823.66 718.63 833.54 724.87 842.93 730.59C847.59 733.42 852.54 736.99 857.82 738.57C865.85 740.97 875.24 739.52 883.5 739.59C893.49 739.66 903.48 739.47 913.47 739.49C919.44 739.5 925.57 740.1 931.5 739.43C936.83 734.05 939.4 725.05 942.74 718.28C952.97 697.59 960.76 675.5 966.6 653.21C990.67 561.34 981.06 461.46 928.37 381.13C912.28 356.62 891.98 335.56 869.32 317.15C863.44 312.37 857.53 307.45 851.08 303.46C847.18 301.05 843.28 300.38 843.04 295.5C848.01 294.04 852.87 296.27 857.74 297.65C869.77 301.05 881.15 306.09 891.83 312.64C923.91 332.31 947.82 357.92 967.77 389.71C973.81 399.34 978.47 409.83 983.57 419.96C999.66 451.9 1008.36 491.16 1011.95 526.5C1017.71 583.14 1011.69 636.16 993.5 689.95C986.21 711.51 977.57 732.91 966.22 752.7C953.79 774.4 940.36 794.77 925.07 814.58C921.16 819.65 916.98 824.44 912.81 829.28C911.16 831.19 909.26 834.31 906.96 835.44C903.51 837.14 898.27 836.27 894.5 836.37C884.23 836.66 873.51 835.24 863.32 836.59C851.47 838.15 840.74 844.23 830.41 849.9C812.11 859.95 792.52 871.41 771.5 874.2C762.92 875.33 743.8 876.43 738.16 868.5ZM742.79 698.5C741.69 704.91 734.92 704.99 729.5 704.95C720.18 704.89 710.75 705.13 703.61 712.1C697.06 718.51 700.1 724.99 697.01 729.46C694.66 732.85 689.55 735.34 686.24 737.72C680.02 742.18 669.37 751.73 662.7 754.27C658.89 755.71 653.54 754.82 649.5 754.89C638.5 755.07 627.5 754.73 616.5 754.93C589.85 755.42 563.16 754.62 536.5 754.87C527.83 754.95 519.16 754.51 510.5 754.66C504.74 754.76 498.03 755.77 492.45 754.5C494.66 750.26 500.38 747.83 503.49 743.97C509.86 736.05 508.27 731.53 509.33 722.5C517.61 715.91 527.03 710.08 535.99 704.46C539.76 702.09 543.75 698.61 548.16 697.59C553.25 696.42 559.3 697.33 564.5 697.33C575.17 697.33 585.83 697.21 596.5 697.35C625.16 697.75 653.84 696.99 682.5 697.39C696.83 697.6 711.17 697.26 725.5 697.33C730.4 697.35 738.66 695.91 742.79 698.5ZM500 759.3C498.82 761.52 492.64 761.07 489.8 761.5C491.18 762.5 492.56 763.5 493.93 764.5C483.16 766.26 473.91 772.89 473.65 784.5C473.55 789.1 474.02 792.48 478.03 795C480.49 798.3 482.78 801.91 486.81 803.64C490.66 805.3 495.41 804.73 499.5 804.67C507.17 804.55 514.83 804.43 522.5 804.41C555.51 804.36 588.54 804.81 621.54 804.49C630.2 804.41 638.84 804.26 647.5 804.36C652.5 804.41 658.26 805.28 662.88 803.5C658.68 796.26 656.54 789.26 657.41 780.67C657.81 776.74 659.5 773.07 659.76 769.17C661.53 769.13 663.3 769.08 665.07 769.04C662.09 777.29 660.96 796.89 668.5 802.87C688.83 788.61 709.17 774.34 729.5 760.07C732.46 760.68 736.78 761.65 738.77 763.5C733.01 769.23 725.74 773.85 719.25 778.74C710.5 785.34 701.87 791.99 693.31 798.84C688.55 802.64 675.63 813.75 670.53 815.23C666.57 816.38 661.59 815.53 657.5 815.57C648.83 815.64 640.17 815.78 631.5 815.74C604.83 815.6 578.17 815.66 551.5 815.53C535.16 815.46 518.85 815.79 502.5 815.71C492.98 815.66 482.43 816.08 474.25 810.25C460.04 800.12 460.51 774.88 473.76 764.29C481.31 758.26 490.82 758.29 500 759.3ZM516.06 768.92C507.04 768.95 498.02 768.97 489 768.99C492.51 767.33 511.97 767.8 516.06 768.92ZM527.2 785.21C527.3 784.97 527.4 784.73 527.5 784.49C529.62 783.82 531.75 783.16 533.87 782.5C532.54 781.95 531.2 781.4 529.86 780.85C546.74 781.07 563.62 781.29 580.5 781.51C576.32 783.77 569.47 783.4 564.5 783.69C555.82 784.19 547.18 784.39 538.5 784.7C534.73 784.83 530.89 785.59 527.2 785.21ZM736.82 840.5C733.79 840.3 731.54 840.32 729.35 842.5C731.84 841.83 734.33 841.17 736.82 840.5ZM726.5 843.5C719.33 842.51 711.81 845.64 704.5 845.84C701.02 845.94 696.74 845.43 694.11 847.5C705.51 849.28 715.77 847.51 726.5 843.5ZM894.79 848.5C889.38 857.02 880.03 863.38 872.7 870.18C858.22 883.61 842.35 895.55 825.85 906.37C749.28 956.58 663.28 978.93 571.83 968.52C546.27 965.62 521.22 959.43 496.74 951.67C490.32 949.64 484.04 947.13 477.76 944.71C472.82 942.8 467.7 939.84 462.5 939.17C461.5 942.46 460.5 945.75 459.5 949.04C452.46 947.12 443.91 937.3 438.07 932.46C427.87 924 418.12 915.03 407.72 906.78C400.62 901.14 389.06 892.79 384.05 885.5C389.17 885.38 403.64 892.71 409.86 894.55C424.95 899.01 440.83 900.77 456.5 901.87C463.49 902.36 479.43 901.22 484.18 905.5C481.24 909.02 473.35 913.7 472.42 917.5C487.46 925.01 504.54 929.12 520.64 933.71C540.39 939.35 560.13 941.7 580.5 943.84C638.42 949.93 697.3 939.34 750.56 916.1C775.64 905.16 798.82 890.52 820.69 874.14C827.69 868.9 834.54 863.38 840.98 857.47C844.45 854.3 848.77 849.26 853.31 847.72C856.79 846.53 861.85 847.77 865.5 847.77C873.4 847.79 887.89 845.95 894.79 848.5Z" fill="#58af3c" fill-rule="evenodd" stroke="#58af3c" stroke-width="0.25" stroke-linejoin="round"/>
<path d="M454.27 238.5C451.28 240.53 447.88 241.6 444.59 243.08C438.94 245.62 433.34 248.47 427.94 251.48C407.78 262.71 388.77 275.7 371.17 290.65C300.15 350.97 254.11 445.32 253.86 538.5C253.77 570.44 258.96 595.89 269.75 625.68C272.85 634.25 278.23 650.19 284.5 656.46C292.83 652.24 301.17 648.02 309.5 643.8C311.47 649.4 309.48 655.64 309 661.5C307.94 674.52 306.3 687.51 304.91 700.5C304.34 705.87 305.06 713.45 302.5 718.08C275.37 709.55 248.25 701.03 221.12 692.5C229.25 687.7 237.37 682.9 245.5 678.11C245.14 673.71 242.01 669.38 240.25 665.28C236.62 656.82 232.99 648.18 230.17 639.39C223.25 617.86 218.81 595.91 216.33 573.46C213.98 552.14 214.56 529.41 217.57 508.26C218.81 499.59 219.5 490.61 221.54 482.05C224.57 469.33 227.48 456.55 231.54 444.06C249.11 390.13 279.86 342.23 318.47 300.99C342.14 275.7 371.63 254.68 402.17 238.62C407.62 235.75 423.39 226.97 428.7 226.36C431.17 226.08 433.56 227.75 435.68 228.77C441.52 231.58 449.8 233.87 454.27 238.5ZM556.5 832.34C555.23 835.04 551.95 836.48 549.44 837.96C542.58 842.03 534.71 845.27 527.05 847.51C524.45 848.27 520.72 848.38 518.52 849.99C517.2 850.97 516.49 852.67 515.39 853.87C512.82 856.7 509.39 858.8 506.02 860.53C499 864.13 490.16 867.35 482.39 868.69C479.3 869.22 475.63 868.35 472.72 869.26C470.19 870.04 467.98 872.76 465.32 873.79C457.56 876.8 447.75 877.99 439.5 877.1C418.68 874.87 400.68 865.29 381.31 858.27C372.41 855.04 363.46 851.87 354.38 849.21C350.61 848.1 345.58 848.39 342.33 846.15C337.1 842.57 332.45 835.92 328.47 831.03C317.93 818.07 307.68 804.99 298.45 791.04C290.79 779.47 283.63 767.77 276.71 755.74C274.05 751.11 270.42 745.72 269.43 740.5C274.99 738.21 283.41 739.65 289.5 739.54C301.5 739.32 313.5 739.48 325.5 739.48C331.12 739.47 336.91 739.87 342.5 739.28C356.79 737.78 374.42 722.82 388.56 717.06C405.17 710.29 423.6 712.48 440.76 715.6C453.4 717.9 465.65 718.58 478.5 718.78C484.48 718.87 490.1 718.67 492.21 725.41C494.53 732.8 488.1 739.58 482.09 742.61C476.25 745.54 466.91 747.96 460.46 748.63C452.4 749.48 442.09 748.27 435.41 753.91C426.71 761.25 433.69 772.5 440.42 778.07C442.5 779.8 446.89 781.98 447.67 784.73C448.43 787.41 447.49 790.71 447.76 793.5C448.45 800.89 451.08 807.96 455.77 813.74C473.32 835.41 504.72 831.31 529.5 831.04C535.45 830.97 552.21 829.9 556.5 832.34Z" fill="#0464d1" fill-rule="evenodd" stroke="#0464d1" stroke-width="0.25" stroke-linejoin="round"/>
</svg>